<?xml version="1.0" encoding="UTF-8"?>
<svg id="Layer_3" data-name="Layer 3" xmlns="http://www.w3.org/2000/svg" viewBox="0 0 44.54 61.72">
  <defs>
    <style>
      .cls-1 {
        fill: none;
        stroke: #fff;
      }

      .cls-1, .cls-2, .cls-3 {
        stroke-miterlimit: 10;
      }

      .cls-2 {
        fill: #94603a;
      }

      .cls-2, .cls-3 {
        stroke: #231f20;
      }

      .cls-3 {
        fill: #bf2829;
      }
    </style>
  </defs>
  <path class="cls-3" d="M21.96,17.09s-1.56-2.44-5.44-2.78-6.78-.44-8.78.44S.73,19.64.51,29.37c-.26,11.5,4.06,29.61,12.78,31.39,3.47.71,6.5-.39,8.23-1.28.9-.46,1.98-.23,2.66.51s3.51,1.41,4.38,1.2,5.98-3.02,8.01-5.6c3.44-4.38,8.18-9.94,7.39-22.61s-3-17.06-9.78-19.5-12.22,3.61-12.22,3.61Z"/>
  <path class="cls-2" d="M21.09,16.15L13.59,1.73l2.17-1.08c1.33,2,2.17,3.17,3.58,4.83s3.61,10.67,3.61,10.67"/>
  <path class="cls-1" d="M7.93,26.89s-2.42,6.17,1.42,13.5"/>
</svg>