<?xml version="1.0" encoding="UTF-8"?>
<svg id="Layer_1" data-name="Layer 1" xmlns="http://www.w3.org/2000/svg" viewBox="0 0 60.8 172.43">
  <defs>
    <style>
      .cls-1 {
        fill: #c1619f;
      }

      .cls-1, .cls-2, .cls-3, .cls-4 {
        stroke-miterlimit: 10;
      }

      .cls-1, .cls-3, .cls-4 {
        stroke: #231f20;
      }

      .cls-1, .cls-4 {
        stroke-width: .5px;
      }

      .cls-2 {
        fill: none;
        stroke: #000;
      }

      .cls-3 {
        fill: #fff;
      }

      .cls-4 {
        fill: #eeb93f;
      }
    </style>
  </defs>
  <path class="cls-3" d="M28.84,64.46l9.26,7.22c2.22,1.85,3.94,3.49,5.79,5.44l4.77,5.38c1.36,1.54,2.62,3.16,3.77,4.87l2.36,3.1,3.22,5.2c.85,1.26,1.46,2.66,1.81,4.14l.39,1.67c.52,2.22-1.23,4.39-3.51,4.21-.03,0-.06,0-.09,0-3.36-.32-5.34-3.65-5.34-3.65l-2.91-8.63c-1.18-3.49-2.94-6.76-5.21-9.67l-13.75-17.61-.48-1.26"/>
  <path class="cls-3" d="M21.92,64.46l-8.21,10.73c-2.2,3.05-4.08,6.01-5.93,9.21-1.98,3.44-4.21,8.04-5.41,10.91-2.17,5.21-1.9,8.37-1.82,9.34s.55,3.97,2.67,3.79c.94-.08,1.79-.58,2.45-1.11.84-.68,1.42-1.61,1.72-2.65l3.08-10.9s1.8-9.74,6.95-19.23,4.24-9.66,4.24-9.66"/>
  <path class="cls-3" d="M4.45,108.25s-.62,6.54-.54,11.88,2.88,13.62,2.88,13.62l2.21,8.89s.96,3.03,2.33,8.63,1.93,5.92,1.22,10.54-5.76,4.88-5.01,7.11,5.62,2.82,7.46,2.83,5.51.16,9.72-.83,4.69-.96,5.24-2.5-.12-33.54-.29-35.12.08-2.71,1.42-3.04,2.42-.12,3.08.25.75,1.71.79,4.29c.04,2.26.55,22.36.68,27.34.02.87.12,1.75.32,2.6.31,1.34.87,3.21,1.71,4.02,2.5,2.39,11.42,3.29,12.92,3.17s4.54.21,8.38-2.17-5-5.12-4.71-8.17,1.58-34.96,1.58-34.96l-.46-18.75s-1.08-7.04-2.12-10.75c-1.04-3.71-11.5-22.95-11.5-22.95,0,0-2.63-1-4.86-.18s-1.66,1.34-6.5,2.11-9.5-.78-10.17-1.03-5.47.04-5.72-.54-3.15,6.41-3.15,6.41l-4,11.2-2.23,10.43-.67,5.67Z"/>
  <path class="cls-3" d="M21.17,77.57c-3.08-.85-5.91-2.3-8.36-4.21-5.59-4.38-9.19-11.19-9.19-18.85,0-13.21,10.71-23.92,23.92-23.92s23.92,10.71,23.92,23.92c0,10.81-7.17,19.95-17.02,22.91"/>
  <path class="cls-2" d="M26.9,30.19s-2.08-5.36-.66-9.25,4.19-4.39,4.19-4.39c0,0,2.31-.67,4.08.61.64.46,1.09,1.08,1.31,1.87.67,2.43-.48,5.04-2.66,6.3-.23.13-.47.25-.73.36-2.33.97-4.13.17-5.39-1.19s-2.61-3.64-2.61-6.36c0-1,.2-2.62,1-4.28.67-1.39,2.58-3.22,3.58-3.78,1.67-.92,4.08-.86,4.22-.92"/>
  <ellipse class="cls-1" cx="39.09" cy="4.09" rx="3.87" ry="2.14" transform="translate(28.69 41.99) rotate(-80.62)"/>
  <ellipse class="cls-1" cx="42.37" cy="6.81" rx="3.18" ry="2.1" transform="translate(-.44 9.86) rotate(-13.2)"/>
  <ellipse class="cls-1" cx="41.54" cy="11.13" rx="2.14" ry="3.87" transform="translate(4.29 32.63) rotate(-45)"/>
  <ellipse class="cls-1" cx="37.93" cy="12.68" rx="2.14" ry="3.87"/>
  <ellipse class="cls-1" cx="35.43" cy="6.4" rx="2.14" ry="3.87" transform="translate(4.59 24.98) rotate(-41.3)"/>
  <ellipse class="cls-1" cx="35.05" cy="9.51" rx="2.85" ry="1.7" transform="translate(-.84 15.08) rotate(-24)"/>
  <ellipse class="cls-4" cx="38.26" cy="8.65" rx="1.61" ry="2.32"/>
</svg>