<?xml version="1.0" encoding="UTF-8"?>
<svg xmlns="http://www.w3.org/2000/svg" viewBox="0 0 370.97 494.63">
  <defs>
    <style>
      .cls-1 {
        fill: #c1629e;
      }

      .cls-1, .cls-2, .cls-3, .cls-4, .cls-5 {
        stroke-miterlimit: 10;
      }

      .cls-1, .cls-5 {
        stroke: #231f20;
        stroke-width: .5px;
      }

      .cls-2 {
        fill: #000;
      }

      .cls-2, .cls-3, .cls-4 {
        stroke: #010101;
      }

      .cls-3 {
        fill: #fff;
      }

      .cls-4 {
        fill: none;
      }

      .cls-5 {
        fill: #edb840;
      }
    </style>
  </defs>
  <g id="Layer_3" data-name="Layer 3">
    <g id="Layer_4" data-name="Layer 4">
      <path class="cls-3" d="M154.89,326.02l-26.71,55.77c-1.4,2.92-.57,6.42,1.99,8.4l13.43,10.38c2.29,1.77,5.59,1.31,7.31-1.02l.44-.59c1.57-2.13,1.55-5.05-.06-7.15l-3.06-4,32.44-59.67-25.78-2.11Z"/>
    </g>
    <path class="cls-3" d="M175.38,257.06l1.42,13.97c.23,2.28.89,4.5,1.94,6.53l1.04,2.01c1.38,2.67,3.25,5.05,5.52,7.02l6.12,5.32c2.47,2.14,5.28,3.85,8.33,5.03l4.6,1.8c2.65,1.03,5.39,1.79,8.2,2.27l7.35,1.26c3.06.52,5.97-1.52,6.53-4.57h0c.41-2.25-.57-4.52-2.49-5.76l-8.79-5.71c-.3-.2-.59-.42-.85-.68l-11.03-10.66c-.25-.24-.47-.5-.67-.78l-9.57-13.39"/>
    <path class="cls-3" d="M169.56,244.81l-24.49,61.45c-.7,1.76-1.06,3.64-1.06,5.53h0c0,2.4.73,4.75,2.08,6.73l3.63,5.3c3.29,4.79,7.19,9.13,11.62,12.89l15.78,13.44.58.77c1.56,2.08,2.31,4.66,2.11,7.25l-.02.25c-.22,2.84-.94,5.61-2.13,8.2l-13.08,28.41c-1.5,3.26-.73,7.11,1.9,9.54l4.97,4.59,9.12,6.74c2.32,1.71,5.56,1.34,7.44-.84l1.48-1.72c1.53-1.78,1.57-4.39.12-6.22l-6.05-7.62,27.39-49.95c1.71-3.11,1.35-6.95-.91-9.69l-14.04-17.02,6.1-10.19c3.89-6.49,5.43-14.12,4.37-21.61l-6.36-44.87-30.56-1.33Z"/>
    <path class="cls-3" d="M183.16,260.7l-42.33,20.23c-2.35,1.12-3.71,3.64-3.36,6.22h0c.42,3.11,3.64,5.01,6.57,3.87l39.12-12.22"/>
  </g>
  <g id="Layer_6" data-name="Layer 6">
    <path class="cls-4" d="M183.16,200.9s-1.53-6.57-5.48-9.4-6.97-1.47-6.97-1.47c0,0-2.67.88-3.55,3.3-.31.86-.34,1.76-.03,2.68.96,2.8,3.8,4.57,6.75,4.34.31-.02.62-.07.94-.13,2.9-.6,4.11-2.57,4.43-4.72s.12-5.25-1.68-7.89c-.66-.97-1.93-2.4-3.8-3.48-1.57-.9-4.63-1.42-5.97-1.29-2.22.22-4.53,1.87-4.7,1.91"/>
    <ellipse class="cls-1" cx="154.06" cy="183.69" rx="2.51" ry="4.55" transform="translate(-84.24 157.46) rotate(-43.73)"/>
    <ellipse class="cls-1" cx="152.69" cy="188.5" rx="3.73" ry="2.46" transform="translate(-57.73 67.79) rotate(-21.15)"/>
    <ellipse class="cls-1" cx="156.36" cy="192.13" rx="4.55" ry="2.51" transform="translate(-61.35 310.3) rotate(-79.35)"/>
    <ellipse class="cls-1" cx="160.88" cy="191.23" rx="2.51" ry="4.55" transform="translate(-79.85 124.14) rotate(-34.35)"/>
    <ellipse class="cls-1" cx="159.14" cy="183.51" rx="4.55" ry="2.51" transform="translate(-42.28 319.27) rotate(-83.05)"/>
    <ellipse class="cls-1" cx="161.57" cy="186.26" rx="3.35" ry="1.99" transform="translate(-30.85 32.08) rotate(-10.36)"/>
    <ellipse class="cls-5" cx="157.89" cy="187.55" rx="1.89" ry="2.72" transform="translate(-78.3 121.81) rotate(-34.35)"/>
  </g>
  <g id="Layer_2" data-name="Layer 2">
    <path class="cls-3" d="M198.37,252.98l1.59-.72c2.35-1.07,4.51-2.52,6.39-4.28l.53-.49c1.77-1.66,3.28-3.59,4.48-5.71l.47-.83c1.4-2.49,2.34-5.21,2.78-8.04l.44-2.86c.43-2.76.36-5.58-.19-8.32h0c-.41-2.02-1.07-3.97-1.98-5.82l-.54-1.1c-1-2.03-2.29-3.91-3.82-5.57l-.49-.53c-1.81-1.97-3.95-3.63-6.31-4.89l-2.1-1.12c-2.51-1.34-5.25-2.22-8.07-2.6l-.56-.07c-2.85-.38-5.75-.24-8.55.41l-1.78.42c-3.11.73-6.05,2.07-8.63,3.96l-.29.21c-1.84,1.35-3.48,2.95-4.87,4.76l-1.39,1.83c-2.44,3.19-4.03,6.95-4.62,10.93l-.45,3.02c-.49,3.25-.29,6.57.57,9.75l.1.37c.62,2.27,1.56,4.43,2.82,6.43l.3.48c1.22,1.94,2.71,3.69,4.42,5.2l.59.52"/>
  </g>
  <g id="Layer_5" data-name="Layer 5">
    <ellipse class="cls-2" cx="205.08" cy="226.99" rx="1.75" ry="6.42"/>
  </g>
</svg>