<?xml version="1.0" encoding="UTF-8"?>
<svg xmlns="http://www.w3.org/2000/svg" viewBox="0 0 94.65 176.95">
  <defs>
    <style>
      .cls-1 {
        fill: #eeb83f;
      }

      .cls-1, .cls-2, .cls-3, .cls-4, .cls-5 {
        stroke-miterlimit: 10;
      }

      .cls-1, .cls-4 {
        stroke: #231f20;
        stroke-width: .5px;
      }

      .cls-2 {
        fill: #000;
      }

      .cls-2, .cls-3, .cls-5 {
        stroke: #000;
      }

      .cls-3 {
        fill: #fff;
      }

      .cls-4 {
        fill: #c0619e;
      }

      .cls-5 {
        fill: none;
      }
    </style>
  </defs>
  <g id="Layer_6" data-name="Layer 6">
    <polygon class="cls-3" points="55.79 90.25 66.06 114.52 55.83 123.86 52.72 110.08 55.79 90.25"/>
  </g>
  <g id="Layer_7" data-name="Layer 7">
    <path class="cls-3" d="M60.22,123.86l13.46-8.38c4.46-2.77,9.7-4.01,14.92-3.53h.05c3.68.35,6.2,3.87,5.32,7.46l-8.59,42.29,3.05.25c2.1.17,3.65,2.03,3.45,4.13h0c-.25,2.49-2.46,4.31-4.95,4.08l-17.38-1.63,9.83-40.83-19.17-3.83Z"/>
  </g>
  <g id="Layer_4" data-name="Layer 4">
    <path class="cls-3" d="M13.26,82.41l-1.09,1.45c-3.17,4.22-5.54,9-6.98,14.07l-2.74,9.61c-2.87,10.08-2.57,20.79.85,30.7h0c1.37,3.97,3.43,7.68,6.08,10.94l2.91,3.59c4.91,6.05,10.79,11.25,17.39,15.38h0c2.98,1.87,6.46,2.79,9.98,2.65l9.5-.37c2.95-.12,5.54-2,6.56-4.78l13.1-35.75-11.01,35.35c-1.15,3.69-1.53,9.97,2.32,10.18l18.67,1c1.97.11,4.75-1.11,4.75-3.08l.05-2.67c0-2.35-2.49-1.96-4.8-2.42l-3.03-.59,10.26-47.51c.67-3.29-1.3-6.54-4.52-7.48h0c-6.64-1.93-13.79-.63-19.32,3.53l-5.49,4.13-8.03,5.7,6.62-24.95c1.58-5.5.58-13.47-1.42-18.83l-3.29-15.03-27.16,8.07c-4.07,1.21-7.63,3.69-10.18,7.09Z"/>
  </g>
  <g id="Layer_5" data-name="Layer 5">
    <path class="cls-3" d="M14.22,84.54l-4.92,9.4c-1.58,3.19-1.59,5-1.59,7.89l.66,7.78,1.25,6.72,2.79,9.62,2.5,4.15,6.48,6.25,3.06,2.34,7.63,4.54c2.13.97,4.24,1.92,6.37,2.89l.52.17c1.33.43,2.78-.11,3.51-1.3h0c1.07-1.76,1.12-3.96.14-5.78l-5.3-9.74h0s-3.71-6.08-3.71-6.08c-.95-2.13-2.28-5.37-2.29-7.7l-.44-13.99"/>
  </g>
  <g id="Layer_8" data-name="Layer 8">
    <path class="cls-5" d="M48.08,35.38s2.44-6.29.78-10.85-4.92-5.15-4.92-5.15c0,0-2.71-.78-4.79.72-.75.54-1.28,1.26-1.53,2.2-.78,2.85.56,5.92,3.13,7.39.27.15.55.3.85.42,2.74,1.14,4.84.2,6.32-1.4s3.06-4.27,3.06-7.46c0-1.17-.24-3.07-1.17-5.02-.78-1.63-3.02-3.78-4.2-4.43-1.96-1.08-4.79-1.01-4.95-1.08"/>
    <ellipse class="cls-4" cx="33.77" cy="4.75" rx="2.51" ry="4.55" transform="translate(-.32 5.57) rotate(-9.38)"/>
    <ellipse class="cls-4" cx="29.93" cy="7.95" rx="2.46" ry="3.73" transform="translate(15.35 35.27) rotate(-76.8)"/>
    <ellipse class="cls-4" cx="30.91" cy="13.02" rx="4.55" ry="2.51" transform="translate(-.15 25.67) rotate(-45)"/>
    <path class="cls-4" d="M37.65,14.83c0,2.51-1.12,4.55-2.51,4.55s-2.51-2.04-2.51-4.55,1.12-4.55,2.51-4.55,2.51,2.04,2.51,4.55Z"/>
    <ellipse class="cls-4" cx="38.07" cy="7.47" rx="4.55" ry="2.51" transform="translate(7.33 31.14) rotate(-48.7)"/>
    <ellipse class="cls-4" cx="38.52" cy="11.11" rx="1.99" ry="3.35" transform="translate(12.7 41.78) rotate(-66)"/>
    <ellipse class="cls-1" cx="34.75" cy="10.1" rx="1.89" ry="2.72"/>
  </g>
  <g id="Layer_3" data-name="Layer 3">
    <path class="cls-3" d="M50.54,88.02l1.67-.51c2.47-.75,4.8-1.9,6.9-3.4l.59-.42c1.98-1.41,3.73-3.12,5.19-5.07l.57-.76c1.72-2.28,3.01-4.86,3.81-7.6l.81-2.78c.79-2.68,1.09-5.48.91-8.27h0c-.14-2.05-.54-4.08-1.2-6.03l-.39-1.16c-.72-2.14-1.75-4.17-3.05-6.03l-.41-.59c-1.54-2.2-3.43-4.12-5.61-5.68l-1.93-1.39c-2.31-1.66-4.91-2.9-7.66-3.64l-.54-.15c-2.78-.75-5.66-1-8.53-.72l-1.82.18c-3.18.31-6.27,1.26-9.08,2.79l-.32.17c-2,1.09-3.84,2.47-5.45,4.08l-1.62,1.63c-2.84,2.84-4.91,6.36-6.03,10.22l-.85,2.94c-.91,3.16-1.16,6.48-.72,9.74l.05.38c.31,2.33.97,4.6,1.94,6.74l.24.52c.95,2.08,2.2,4.01,3.7,5.74l.52.59"/>
  </g>
  <g id="Layer_9" data-name="Layer 9">
    <ellipse class="cls-2" cx="60.22" cy="66.43" rx="5.67" ry="1.25" transform="translate(-16.68 112.54) rotate(-78.75)"/>
    <ellipse class="cls-2" cx="48.33" cy="66.43" rx="5.67" ry="1.25" transform="translate(-26.25 100.88) rotate(-78.75)"/>
  </g>
</svg>